HIERARCHY
ROOT Hips
{
  OFFSET 0.000000 0.000000 0.000000
  CHANNELS 6 Xposition Yposition Zposition Xrotation Yrotation Zrotation
  JOINT Spine
  {
    OFFSET 1.602333 -23.943604 -2.409543
    CHANNELS 3 Xrotation Yrotation Zrotation
    JOINT Chest
    {
      OFFSET 1.602333 -23.943604 -2.409543
      CHANNELS 3 Xrotation Yrotation Zrotation
      JOINT Neck
      {
        OFFSET 3.806094 -17.923844 -5.988769
        CHANNELS 3 Xrotation Yrotation Zrotation
        JOINT Head
        {
          OFFSET 6.327906 5.395311 -10.000731
          CHANNELS 3 Xrotation Yrotation Zrotation
          End Site
          {
            OFFSET 0.0 5.0 2.0
          }
        }
      }
      JOINT LeftShoulder
      {
        OFFSET 15.502173 1.195735 6.811843
        CHANNELS 3 Xrotation Yrotation Zrotation
        JOINT LeftArm
        {
          OFFSET 3.049198 17.579728 -11.048325
          CHANNELS 3 Xrotation Yrotation Zrotation
          JOINT LeftForeArm
          {
            OFFSET 2.612628 -12.912878 -19.404069
            CHANNELS 3 Xrotation Yrotation Zrotation
            JOINT LeftHand
            {
              OFFSET -5.000000 0.000000 0.000000
              CHANNELS 3 Xrotation Yrotation Zrotation
              End Site
              {
                OFFSET -3.0 0.0 2.0
              }
            }
          }
        }
      }
      JOINT RightShoulder
      {
        OFFSET -15.502173 -1.195735 -6.811843
        CHANNELS 3 Xrotation Yrotation Zrotation
        JOINT RightArm
        {
          OFFSET 1.860282 20.699400 -12.838847
          CHANNELS 3 Xrotation Yrotation Zrotation
          JOINT RightForeArm
          {
            OFFSET 18.567713 -8.436623 -13.447486
            CHANNELS 3 Xrotation Yrotation Zrotation
            JOINT RightHand
            {
              OFFSET 4.576148 -2.697205 -1.096402
              CHANNELS 3 Xrotation Yrotation Zrotation
              End Site
              {
                OFFSET 3.0 0.0 2.0
              }
            }
          }
        }
      }
    }
  }
  JOINT LeftUpLeg
  {
    OFFSET 12.055773 0.411694 2.557491
    CHANNELS 3 Xrotation Yrotation Zrotation
    JOINT LeftLeg
    {
      OFFSET 12.719119 36.398606 -2.685860
      CHANNELS 3 Xrotation Yrotation Zrotation
      JOINT LeftFoot
      {
        OFFSET 7.820123 26.401424 24.718294
        CHANNELS 3 Xrotation Yrotation Zrotation
        JOINT LeftToeBase
        {
          OFFSET 7.851410 13.775814 -6.190473
          CHANNELS 3 Xrotation Yrotation Zrotation
          End Site
          {
            OFFSET 0.0 -1.0 3.0
          }
        }
      }
    }
  }
  JOINT RightUpLeg
  {
    OFFSET -12.055773 -0.411694 -2.557491
    CHANNELS 3 Xrotation Yrotation Zrotation
    JOINT RightLeg
    {
      OFFSET -15.729471 35.705056 0.246896
      CHANNELS 3 Xrotation Yrotation Zrotation
      JOINT RightFoot
      {
        OFFSET -14.311993 22.750783 26.458322
        CHANNELS 3 Xrotation Yrotation Zrotation
        JOINT RightToeBase
        {
          OFFSET -9.751311 10.017675 -8.024450
          CHANNELS 3 Xrotation Yrotation Zrotation
          End Site
          {
            OFFSET 0.0 -1.0 3.0
          }
        }
      }
    }
  }
}
MOTION
Frames: 9
Frame Time: 0.066667
0.000000 0.000000 0.000000 0.722522 -20.556278 -0.103429 -1.036563 -0.995283 10.157643 3.398856 -37.171981 -1.195411 30.262653 -26.950068 -3.745137 0.000000 0.000000 0.000000 41.868650 0.159496 30.919118 39.738121 2.619118 3.841700 137.255434 -10.547785 -175.862355 0.000000 0.000000 0.000000 34.013493 -4.312719 -6.370797 -30.873792 -51.259111 35.234501 -4.756649 -12.073883 22.600989 0.000000 0.000000 0.000000 -4.499403 0.991455 -5.031054 -27.545020 6.494636 0.483554 44.815727 -21.224954 -20.982881 0.000000 0.000000 0.000000 14.016087 6.449576 -1.585899 -7.597105 -6.182565 1.769340 53.723893 38.734055 -2.634360 0.000000 0.000000 0.000000
0.000000 0.000000 0.000000 0.046513 -19.050335 1.601291 0.366433 -1.234043 12.156703 -1.498790 -27.333972 5.583159 14.669151 -10.068786 2.957039 0.000000 0.000000 0.000000 42.619109 0.407160 33.565433 94.541420 -13.702824 6.424342 40.926254 -12.043450 -148.429450 0.000000 0.000000 0.000000 -8.648866 1.151491 0.457471 3.667120 -13.016588 14.812338 9.518963 0.992413 29.517723 0.000000 0.000000 0.000000 -6.385290 1.058026 -8.867163 -19.553185 3.229124 2.775418 39.745809 -19.906310 -18.979697 0.000000 0.000000 0.000000 11.638071 5.214528 -0.540988 -5.038426 -5.246048 2.152416 52.089922 37.756154 -0.562093 0.000000 0.000000 0.000000
0.000000 0.000000 0.000000 -1.084660 -17.795339 4.702811 -1.355280 -1.307916 13.776854 -5.181932 -17.798211 11.649504 6.988384 -5.697470 1.071931 0.000000 0.000000 0.000000 32.113556 3.276064 27.224836 25.660194 -19.519121 10.728494 118.692541 -32.598436 -160.336744 0.000000 0.000000 0.000000 -12.470005 2.337637 1.441651 7.569175 -6.168253 14.330239 11.313002 3.511417 27.925364 0.000000 0.000000 0.000000 -4.573676 0.897196 -6.043683 -9.895791 2.125368 0.758771 36.580380 -18.955935 -16.152652 0.000000 0.000000 0.000000 4.138889 1.843808 -0.386345 -1.970033 -2.316104 0.991378 51.140363 37.221261 -1.141268 0.000000 0.000000 0.000000
0.000000 0.000000 0.000000 -1.234160 -13.581448 5.229459 3.097773 -1.737902 15.231628 -4.937566 -6.334193 11.257112 1.728107 1.514045 1.932614 0.000000 0.000000 0.000000 2.374807 -1.009620 -1.007588 13.376811 -11.596489 7.681659 -40.130324 -29.679670 108.086428 0.000000 0.000000 0.000000 -19.735861 8.479416 7.216304 11.379526 -1.787313 15.946241 15.389183 6.282388 31.225002 0.000000 0.000000 0.000000 -3.315632 0.801784 -3.410861 -3.370445 1.430778 -0.522236 32.823798 -17.665894 -13.927616 0.000000 0.000000 0.000000 -1.495904 -0.663334 -0.501631 -1.715209 2.958792 -3.511962 47.111835 35.023778 2.643832 0.000000 0.000000 0.000000
0.000000 0.000000 0.000000 -1.293854 -12.352214 5.456056 4.496118 -1.745449 14.608291 -4.270819 -2.874161 9.814346 0.258491 3.984127 2.275210 0.000000 0.000000 0.000000 -10.500505 -12.132044 -18.778905 -10.645599 -4.012899 1.722929 -18.178666 -20.488149 83.033142 0.000000 0.000000 0.000000 -20.638610 9.676397 8.293430 8.912931 -0.515978 12.053961 9.570172 3.113927 24.361670 0.000000 0.000000 0.000000 -3.227110 0.726496 -3.866856 -4.069598 3.428282 -2.620430 33.292259 -17.910536 -15.698862 0.000000 0.000000 0.000000 -0.108899 -0.034521 -2.306542 -2.197643 5.546114 -6.004203 48.108074 35.409965 -2.901325 0.000000 0.000000 0.000000
0.000000 0.000000 0.000000 -1.262634 -11.581903 5.381828 6.110163 -1.604020 13.040737 -4.569441 -1.972380 10.462750 1.915075 0.138816 1.299744 0.000000 0.000000 0.000000 -8.996544 -4.702484 -8.606621 -3.156362 -6.900986 4.479524 -46.638026 -31.491069 113.624889 0.000000 0.000000 0.000000 -15.010908 14.084284 15.166997 6.625138 -2.823620 10.710462 5.662368 0.408830 19.746123 0.000000 0.000000 0.000000 -3.165678 0.698043 -3.956517 -3.495770 3.185232 -2.496891 32.328647 -17.543919 -14.660300 0.000000 0.000000 0.000000 -0.686772 -0.303576 -4.219343 -3.628773 6.199153 -7.469853 47.274872 34.893549 -3.134445 0.000000 0.000000 0.000000
0.000000 0.000000 0.000000 -1.279570 -10.538791 5.474935 6.040215 -1.469602 12.190120 -4.596086 -2.936528 10.527518 2.655210 2.112617 2.871004 0.000000 0.000000 0.000000 5.607243 -5.372257 -7.982555 10.646574 -4.353011 3.717188 -43.778416 -38.361024 98.228696 0.000000 0.000000 0.000000 -11.197524 17.900901 21.508228 7.548609 -3.624240 12.452710 5.614983 1.506198 16.743127 0.000000 0.000000 0.000000 -2.675089 0.560324 -3.798280 -5.029900 4.379877 -3.485183 34.156615 -18.182420 -15.663672 0.000000 0.000000 0.000000 -0.431663 -0.177112 -5.285582 -2.333994 8.652572 -8.673567 44.070801 32.986714 -2.015015 0.000000 0.000000 0.000000
0.000000 0.000000 0.000000 -1.228867 -8.367402 5.380797 7.829660 -0.526775 6.203574 -2.977366 -0.562025 6.837278 -3.076990 5.406557 0.791113 0.000000 0.000000 0.000000 11.282051 2.325453 8.299837 14.942193 2.168190 0.793398 -41.104561 -52.124194 74.947582 0.000000 0.000000 0.000000 -3.485838 11.258140 16.217344 7.944628 6.768092 6.398060 6.266418 9.672166 1.922682 0.000000 0.000000 0.000000 -0.184946 -0.026097 -1.204361 -6.930696 6.804212 -5.988190 38.055725 -19.420212 -17.547404 0.000000 0.000000 0.000000 13.574146 7.409863 -9.084087 -4.366426 7.554540 -9.110827 48.802015 35.975279 3.964088 0.000000 0.000000 0.000000
0.000000 0.000000 0.000000 -0.965613 -5.574656 4.473595 7.337495 0.351430 0.864091 -1.108889 3.154839 2.072368 -3.642246 8.374936 1.837324 0.000000 0.000000 0.000000 1.228312 0.023053 0.382441 13.140361 12.153915 -4.522373 -16.568816 -33.543586 51.573241 0.000000 0.000000 0.000000 -1.661402 5.464142 8.232216 5.126949 8.319835 1.974163 5.863821 9.570804 0.940387 0.000000 0.000000 0.000000 -5.710308 1.865146 -1.071589 -7.070590 6.939157 -6.126658 42.434267 -20.672643 -18.730674 0.000000 0.000000 0.000000 7.714079 4.210104 -8.891446 -4.666921 9.212400 -10.717489 48.873249 36.034798 5.083158 0.000000 0.000000 0.000000
